<svg width="15" height="16" viewBox="0 0 15 16" fill="none" xmlns="http://www.w3.org/2000/svg">
<g id="iconamoon:search">
<path id="Vector" d="M12.7501 13.2501L10.0358 10.5358M10.0358 10.5358C10.5001 10.0714 10.8684 9.52024 11.1196 8.91359C11.3709 8.30695 11.5003 7.65675 11.5003 7.00013C11.5003 6.3435 11.3709 5.69331 11.1196 5.08666C10.8684 4.48002 10.5001 3.92881 10.0358 3.4645C9.57145 3.0002 9.02024 2.63189 8.41359 2.38061C7.80695 2.12933 7.15675 2 6.50013 2C5.8435 2 5.19331 2.12933 4.58666 2.38061C3.98002 2.63189 3.42881 3.0002 2.9645 3.4645C2.0268 4.40221 1.5 5.67401 1.5 7.00013C1.5 8.32625 2.0268 9.59805 2.9645 10.5358C3.90221 11.4735 5.17401 12.0003 6.50013 12.0003C7.82625 12.0003 9.09805 11.4735 10.0358 10.5358Z" stroke="#1C1C1C" stroke-width="1.5" stroke-linecap="round" stroke-linejoin="round"/>
</g>
</svg>
